<mxfile host="app.diagrams.net" modified="2023-10-24T03:03:41.212Z" agent="Mozilla/5.0 (Windows NT 10.0; Win64; x64) AppleWebKit/537.36 (KHTML, like Gecko) Chrome/120.0.0.0 Safari/537.36" etag="sV1_7TQIBN2cjV9RpI2I" version="22.0.6" type="github">
  <diagram id="c8HK3SkO3hzYToyx8a8B" name="第 1 页">
    <mxGraphModel dx="685" dy="746" grid="1" gridSize="10" guides="1" tooltips="1" connect="1" arrows="1" fold="1" page="1" pageScale="1" pageWidth="827" pageHeight="1169" math="1" shadow="0">
      <root>
        <mxCell id="0" />
        <mxCell id="1" parent="0" />
        <mxCell id="5xKOFeYGnf-TOptimdmP-3" value="" style="verticalLabelPosition=bottom;verticalAlign=top;html=1;shape=mxgraph.basic.heart" vertex="1" parent="1">
          <mxGeometry x="190" y="140" width="110" height="100" as="geometry" />
        </mxCell>
        <mxCell id="5xKOFeYGnf-TOptimdmP-1" value="" style="endArrow=classic;html=1;rounded=0;" edge="1" parent="1">
          <mxGeometry width="50" height="50" relative="1" as="geometry">
            <mxPoint x="244" y="153" as="sourcePoint" />
            <mxPoint x="340" y="153" as="targetPoint" />
          </mxGeometry>
        </mxCell>
        <mxCell id="5xKOFeYGnf-TOptimdmP-4" value="" style="endArrow=none;html=1;rounded=0;entryX=0.845;entryY=0.04;entryDx=0;entryDy=0;entryPerimeter=0;" edge="1" parent="1" target="5xKOFeYGnf-TOptimdmP-3">
          <mxGeometry width="50" height="50" relative="1" as="geometry">
            <mxPoint x="246" y="153" as="sourcePoint" />
            <mxPoint x="270" y="140" as="targetPoint" />
          </mxGeometry>
        </mxCell>
        <mxCell id="5xKOFeYGnf-TOptimdmP-8" value="" style="endArrow=none;html=1;rounded=0;" edge="1" parent="1">
          <mxGeometry width="50" height="50" relative="1" as="geometry">
            <mxPoint x="264" y="146" as="sourcePoint" />
            <mxPoint x="264" y="156" as="targetPoint" />
          </mxGeometry>
        </mxCell>
        <mxCell id="5xKOFeYGnf-TOptimdmP-9" value="$$\theta$$" style="text;html=1;align=center;verticalAlign=middle;resizable=0;points=[];autosize=1;strokeColor=none;fillColor=none;" vertex="1" parent="1">
          <mxGeometry x="234" y="138" width="80" height="30" as="geometry" />
        </mxCell>
        <mxCell id="5xKOFeYGnf-TOptimdmP-10" value="$$r$$" style="text;html=1;align=center;verticalAlign=middle;resizable=0;points=[];autosize=1;strokeColor=none;fillColor=none;" vertex="1" parent="1">
          <mxGeometry x="252" y="123" width="50" height="30" as="geometry" />
        </mxCell>
        <mxCell id="5xKOFeYGnf-TOptimdmP-11" value="$$a$$" style="text;html=1;align=center;verticalAlign=middle;resizable=0;points=[];autosize=1;strokeColor=none;fillColor=none;" vertex="1" parent="1">
          <mxGeometry x="253" y="145" width="60" height="30" as="geometry" />
        </mxCell>
        <mxCell id="5xKOFeYGnf-TOptimdmP-12" value="&lt;font style=&quot;&quot;&gt;&lt;font face=&quot;Tahoma&quot; style=&quot;&quot;&gt;&lt;font style=&quot;font-size: 48px;&quot;&gt;1&lt;/font&gt;&lt;span style=&quot;font-size: 72px;&quot;&gt; 28√&lt;/span&gt;&lt;/font&gt;&lt;font face=&quot;Tahoma&quot; style=&quot;font-size: 72px;&quot;&gt;e&lt;/font&gt;&lt;/font&gt;" style="text;html=1;align=center;verticalAlign=middle;resizable=0;points=[];autosize=1;strokeColor=none;fillColor=none;" vertex="1" parent="1">
          <mxGeometry x="99" y="311" width="240" height="100" as="geometry" />
        </mxCell>
        <mxCell id="5xKOFeYGnf-TOptimdmP-18" value="&lt;font style=&quot;font-size: 72px;&quot;&gt;9&lt;/font&gt;" style="text;html=1;align=center;verticalAlign=middle;resizable=0;points=[];autosize=1;strokeColor=none;fillColor=none;" vertex="1" parent="1">
          <mxGeometry x="340" y="320" width="60" height="100" as="geometry" />
        </mxCell>
        <mxCell id="5xKOFeYGnf-TOptimdmP-19" value="&lt;font face=&quot;Garamond&quot; style=&quot;font-size: 72px;&quot;&gt;8&lt;/font&gt;" style="text;html=1;align=center;verticalAlign=middle;resizable=0;points=[];autosize=1;strokeColor=none;fillColor=none;" vertex="1" parent="1">
          <mxGeometry x="374" y="311" width="70" height="100" as="geometry" />
        </mxCell>
        <mxCell id="5xKOFeYGnf-TOptimdmP-20" value="&lt;font face=&quot;Georgia&quot; style=&quot;font-size: 72px;&quot;&gt;6&lt;/font&gt;" style="text;html=1;align=center;verticalAlign=middle;resizable=0;points=[];autosize=1;strokeColor=none;fillColor=none;" vertex="1" parent="1">
          <mxGeometry x="415" y="310" width="60" height="100" as="geometry" />
        </mxCell>
        <mxCell id="5xKOFeYGnf-TOptimdmP-22" value="&lt;font style=&quot;font-size: 18px;&quot;&gt;&lt;b&gt;一串浪漫的数字：&lt;/b&gt;&lt;/font&gt;" style="text;html=1;align=center;verticalAlign=middle;resizable=0;points=[];autosize=1;strokeColor=none;fillColor=none;" vertex="1" parent="1">
          <mxGeometry x="48" y="274" width="162" height="34" as="geometry" />
        </mxCell>
        <mxCell id="5xKOFeYGnf-TOptimdmP-23" value="&lt;font style=&quot;font-size: 48px;&quot;&gt;1&lt;/font&gt;" style="text;html=1;align=center;verticalAlign=middle;resizable=0;points=[];autosize=1;strokeColor=none;fillColor=none;" vertex="1" parent="1">
          <mxGeometry x="151" y="459" width="50" height="70" as="geometry" />
        </mxCell>
        <mxCell id="5xKOFeYGnf-TOptimdmP-24" value="&lt;font style=&quot;font-size: 72px;&quot;&gt;2&lt;/font&gt;" style="text;html=1;align=center;verticalAlign=middle;resizable=0;points=[];autosize=1;strokeColor=none;fillColor=none;" vertex="1" parent="1">
          <mxGeometry x="187" y="432" width="60" height="100" as="geometry" />
        </mxCell>
        <mxCell id="5xKOFeYGnf-TOptimdmP-25" value="&lt;font style=&quot;font-size: 72px;&quot;&gt;8&lt;/font&gt;" style="text;html=1;align=center;verticalAlign=middle;resizable=0;points=[];autosize=1;strokeColor=none;fillColor=none;" vertex="1" parent="1">
          <mxGeometry x="227" y="432" width="60" height="100" as="geometry" />
        </mxCell>
        <mxCell id="5xKOFeYGnf-TOptimdmP-26" value="&lt;font style=&quot;font-size: 72px;&quot;&gt;&lt;b&gt;√&lt;/b&gt;&lt;/font&gt;" style="text;html=1;align=center;verticalAlign=middle;resizable=0;points=[];autosize=1;strokeColor=none;fillColor=none;" vertex="1" parent="1">
          <mxGeometry x="261.5" y="432" width="60" height="100" as="geometry" />
        </mxCell>
        <mxCell id="5xKOFeYGnf-TOptimdmP-27" value="&lt;font style=&quot;font-size: 48px;&quot;&gt;e&lt;/font&gt;" style="text;html=1;align=center;verticalAlign=middle;resizable=0;points=[];autosize=1;strokeColor=none;fillColor=none;" vertex="1" parent="1">
          <mxGeometry x="300.5" y="455" width="50" height="70" as="geometry" />
        </mxCell>
        <mxCell id="5xKOFeYGnf-TOptimdmP-28" value="&lt;font style=&quot;font-size: 72px;&quot;&gt;9&lt;/font&gt;" style="text;html=1;align=center;verticalAlign=middle;resizable=0;points=[];autosize=1;strokeColor=none;fillColor=none;" vertex="1" parent="1">
          <mxGeometry x="345" y="440" width="60" height="100" as="geometry" />
        </mxCell>
        <mxCell id="5xKOFeYGnf-TOptimdmP-29" value="&lt;font style=&quot;font-size: 72px;&quot;&gt;8&lt;/font&gt;" style="text;html=1;align=center;verticalAlign=middle;resizable=0;points=[];autosize=1;strokeColor=none;fillColor=none;" vertex="1" parent="1">
          <mxGeometry x="384" y="432" width="60" height="100" as="geometry" />
        </mxCell>
        <mxCell id="5xKOFeYGnf-TOptimdmP-30" value="&lt;font style=&quot;font-size: 72px;&quot;&gt;6&lt;/font&gt;" style="text;html=1;align=center;verticalAlign=middle;resizable=0;points=[];autosize=1;strokeColor=none;fillColor=none;" vertex="1" parent="1">
          <mxGeometry x="420" y="429" width="60" height="100" as="geometry" />
        </mxCell>
      </root>
    </mxGraphModel>
  </diagram>
</mxfile>
